<svg width="24" height="24" viewBox="0 0 24 24" fill="current" xmlns="http://www.w3.org/2000/svg">
<path d="M21.999 12.0125C21.999 14.5275 22.0014 17.0425 21.998 19.5575C21.9966 20.7141 21.2957 21.6331 20.2039 21.924C19.9887 21.9816 19.7682 22.0002 19.5449 22.0002C14.5149 21.9992 9.4849 22.0006 4.45441 21.9987C3.03883 21.9983 2.00274 20.9674 2.00179 19.5571C1.9994 14.519 1.9994 9.48085 2.00179 4.44275C2.00274 3.0424 3.0355 2.00345 4.43108 2.0025C9.47728 1.99917 14.523 1.99917 19.5692 2.0025C20.9662 2.00345 21.9956 3.04002 21.998 4.44322C22.0018 6.96632 21.999 9.48942 21.999 12.0125ZM11.9985 18.19C11.9985 18.1896 11.9985 18.1891 11.9985 18.1881C12.8313 18.1881 13.6645 18.1991 14.4973 18.1858C16.4547 18.1543 18.1384 16.4954 18.1831 14.5413C18.2065 13.5343 18.1936 12.5263 18.1869 11.5188C18.1836 10.9793 17.7727 10.5822 17.2304 10.5717C17.0875 10.5688 16.9447 10.5727 16.8018 10.5708C16.2076 10.5646 15.8181 10.1808 15.8076 9.59275C15.771 7.47104 14.093 5.81738 11.9656 5.81024C11.2038 5.80738 10.4424 5.80834 9.68059 5.81024C7.49175 5.815 5.81238 7.49437 5.80953 9.68321C5.80762 11.2302 5.80715 12.7772 5.80953 14.3242C5.81286 16.4988 7.49318 18.1824 9.66536 18.1891C10.4439 18.1924 11.2209 18.19 11.9985 18.19Z" fill="current"/>
<path d="M12.0104 15.3333C11.2334 15.3333 10.4563 15.3352 9.67922 15.3328C9.09927 15.3309 8.67264 14.9314 8.66741 14.3915C8.66217 13.8401 9.09118 13.4301 9.68207 13.4292C11.2281 13.4273 12.7742 13.4273 14.3202 13.4292C14.9011 13.4296 15.3268 13.8291 15.332 14.37C15.3373 14.9219 14.9087 15.3309 14.3174 15.3323C13.5484 15.3352 12.7794 15.3333 12.0104 15.3333Z" fill="#A5A5A5"/>
<path d="M10.7991 8.66764C11.1876 8.66764 11.5757 8.66479 11.9642 8.66812C12.5247 8.67288 12.9465 9.07713 12.9513 9.60946C12.9565 10.1527 12.5318 10.5684 11.9609 10.5713C11.1919 10.5746 10.4234 10.5751 9.65445 10.5713C9.09498 10.5684 8.67216 10.1613 8.6674 9.62994C8.66264 9.0876 9.08784 8.6724 9.65778 8.66812C10.0382 8.66479 10.4187 8.66764 10.7991 8.66764Z" fill="#A5A5A5"/>
</svg>
