<svg width="24" height="24" viewBox="0 0 24 24" fill="current" xmlns="http://www.w3.org/2000/svg">
<path d="M14.0436 17.18C14.7655 17.1567 15.3835 17.0294 15.9754 16.7994C17.8299 16.0795 18.7798 14.6756 18.9938 12.7378C19.1204 11.5905 19.0378 10.456 18.4112 9.45807C18.0979 8.95878 17.9779 8.51349 18.1039 7.92821C18.2312 7.33626 18.2192 6.71232 18.0079 6.11971C17.8459 5.66575 17.7406 5.59975 17.2713 5.70708C16.5833 5.8644 15.9441 6.15837 15.3661 6.54767C14.9428 6.83297 14.5695 6.84764 14.0809 6.72832C12.5451 6.35368 10.9999 6.39968 9.476 6.83697C9.30735 6.88564 9.19136 6.87097 9.04738 6.78165C8.34078 6.34302 7.61884 5.93172 6.80158 5.72841C6.25963 5.59376 6.11631 5.66842 5.963 6.20703C5.74768 6.96363 5.82834 7.72689 5.97499 8.48215C6.01632 8.69547 5.99033 8.84812 5.85501 9.0281C5.30506 9.7567 5.04175 10.5953 4.98442 11.5005C4.91443 12.6151 5.04308 13.6997 5.58036 14.6956C6.41962 16.2494 7.81949 16.9327 9.50134 17.1527C9.62066 17.168 9.74131 17.1714 9.92396 17.1847C9.63666 17.6193 9.42801 18.0493 9.33868 18.5279C9.31469 18.6539 9.1787 18.6366 9.09204 18.6632C7.82816 19.0585 6.9969 18.7892 6.13898 17.7093C6.01499 17.5533 5.90967 17.3827 5.79101 17.222C5.48837 16.8127 5.08974 16.5507 4.58979 16.4474C4.38847 16.4061 4.18849 16.4134 4.00851 16.5201C3.7872 16.6514 3.75453 16.9014 3.97518 17.0227C4.68445 17.4127 5.02375 18.0726 5.35105 18.7612C5.83034 19.7691 6.6476 20.2684 7.7615 20.2984C8.19679 20.3104 8.62675 20.2691 9.05604 20.2117C9.23069 20.1884 9.32202 20.2057 9.31535 20.4211C9.30202 20.8537 9.31935 21.287 9.31669 21.7203C9.31402 22.1862 9.03005 22.4662 8.66275 22.6908C8.54542 22.7628 8.44477 22.6975 8.34877 22.6608C4.63045 21.239 2.20134 18.6212 1.29209 14.7416C-0.0257847 9.11876 3.23191 3.51595 8.72474 1.78144C14.8022 -0.137715 21.3156 3.60527 22.7248 9.82736C23.9407 15.1955 21.0316 20.6264 15.8987 22.5629C15.6861 22.6428 15.4795 22.8202 15.2228 22.6222C14.9195 22.3882 14.6829 22.1282 14.6835 21.7189C14.6849 21.0083 14.6709 20.2971 14.6895 19.5865C14.7115 18.7412 14.6582 17.9213 14.0436 17.18Z" fill="current"/>
</svg>
