<svg width="24" height="24" viewBox="0 0 24 24" fill="current" xmlns="http://www.w3.org/2000/svg">
<path d="M12.2988 1.70361C14.8147 1.74395 17.3991 2.46994 19.6405 4.21368C21.2527 5.46819 22.3978 7.05165 22.8273 9.07668C23.3129 11.3668 22.7597 13.4384 21.3544 15.2817C19.9631 17.1066 18.0942 18.249 15.9288 18.9258C13.9472 19.5449 11.9243 19.6654 9.87572 19.3411C9.7191 19.3165 9.61172 19.3563 9.49229 19.4365C8.16602 20.3238 6.83818 21.208 5.51033 22.0927C5.47419 22.1168 5.43857 22.1419 5.40191 22.1655C5.27096 22.2514 5.14105 22.3635 4.97605 22.2451C4.8121 22.1273 4.86972 21.9727 4.91582 21.8187C5.15415 21.0267 5.38933 20.2337 5.62662 19.4417C5.73924 19.0667 5.83981 18.6869 5.97338 18.3192C6.04461 18.1233 5.976 18.0515 5.81624 17.9635C4.34801 17.1532 3.11183 16.0852 2.20408 14.6625C0.352958 11.7607 0.658859 8.14274 2.96569 5.52634C4.60625 3.66578 6.6868 2.5747 9.07587 2.02575C10.0402 1.80418 11.0197 1.70623 12.2988 1.70361ZM9.61958 7.9945C9.34353 7.97303 9.10311 8.05683 8.99363 8.36221C8.43316 9.92629 7.87164 11.4904 7.31746 13.0571C7.21584 13.3446 7.35308 13.6097 7.62493 13.715C7.89102 13.8182 8.16445 13.7008 8.28807 13.4174C8.36454 13.2425 8.43002 13.0613 8.48502 12.8785C8.52325 12.7512 8.58349 12.7004 8.72283 12.7019C9.33306 12.7093 9.94329 12.7093 10.5535 12.7019C10.6913 12.7004 10.7552 12.747 10.7934 12.8753C10.8484 13.0581 10.9134 13.2394 10.9893 13.4143C11.1119 13.6982 11.3848 13.8176 11.6504 13.716C11.9222 13.6123 12.0479 13.3509 11.9636 13.0586C11.9468 13 11.9243 12.9434 11.9039 12.8858C11.379 11.4197 10.8547 9.95353 10.3299 8.48688C10.1863 8.08617 10.058 7.9945 9.61958 7.9945ZM17.2346 10.0017C17.2346 9.49887 17.2357 9.06463 17.2341 8.6304C17.2331 8.23074 17.0298 7.98769 16.7035 7.99241C16.385 7.9966 16.1876 8.23283 16.187 8.61783C16.186 10.1191 16.186 11.6203 16.187 13.121C16.1876 13.507 16.3829 13.7443 16.6998 13.7506C17.0251 13.7574 17.2331 13.5128 17.2341 13.1163C17.2357 12.6186 17.243 12.121 17.231 11.6239C17.2257 11.4071 17.3792 11.2981 17.5138 11.2201C17.6464 11.1436 17.6935 11.3374 17.76 11.4202C18.3163 12.1147 18.8647 12.8156 19.4147 13.5154C19.5493 13.6867 19.719 13.7804 19.9375 13.7422C20.1418 13.7066 20.2821 13.5835 20.3502 13.3839C20.4272 13.1561 20.3267 12.9785 20.192 12.8077C19.6138 12.0749 19.0418 11.3369 18.4567 10.6099C18.3341 10.458 18.3263 10.371 18.4745 10.2296C18.9291 9.79586 19.3676 9.34539 19.8097 8.89911C19.9893 8.71787 20.0265 8.50259 19.9149 8.27526C19.8123 8.06574 19.63 7.97564 19.3985 7.9945C19.2413 8.0076 19.1282 8.10241 19.0213 8.20978C18.4431 8.79225 17.8632 9.37158 17.2346 10.0017ZM5.70938 7.99083C5.20338 7.99083 4.69791 7.98769 4.19192 7.99188C3.85092 7.99503 3.62254 8.20402 3.61731 8.50521C3.61207 8.81583 3.84621 9.03216 4.19978 9.03792C4.44387 9.04159 4.68901 9.05206 4.93205 9.03478C5.13372 9.02063 5.19448 9.07878 5.19238 9.28882C5.18138 10.5009 5.18715 11.713 5.18715 12.9251C5.18715 13.0382 5.18086 13.1524 5.19081 13.265C5.21648 13.5468 5.44067 13.7522 5.712 13.7511C5.98333 13.7506 6.20385 13.5447 6.23109 13.2624C6.23842 13.1844 6.23475 13.1058 6.23475 13.0272C6.23475 11.7889 6.24261 10.5507 6.22794 9.31292C6.22533 9.07144 6.29761 9.01592 6.51866 9.03478C6.74389 9.05363 6.97175 9.04106 7.19855 9.03844C7.57203 9.03478 7.81193 8.82106 7.8046 8.50259C7.79726 8.19407 7.56365 7.99345 7.20065 7.99188C6.70304 7.98874 6.20595 7.99083 5.70938 7.99083ZM12.5199 10.8849C12.5199 11.6617 12.5178 12.4385 12.5209 13.2147C12.5225 13.5479 12.7252 13.7501 13.0589 13.7516C13.7309 13.7548 14.403 13.7553 15.075 13.7516C15.4301 13.7495 15.6648 13.5327 15.6611 13.2221C15.6575 12.9125 15.4239 12.7082 15.0619 12.7056C14.6429 12.7025 14.2238 12.693 13.8053 12.7098C13.6047 12.7176 13.5612 12.6558 13.5628 12.4631C13.5717 11.1892 13.568 9.91477 13.567 8.64088C13.5664 8.2344 13.3732 7.9945 13.0474 7.99188C12.72 7.98926 12.5204 8.22969 12.5199 8.63302C12.5194 9.38363 12.5199 10.1342 12.5199 10.8849Z" fill="current"/>
<path d="M9.63953 9.66602C9.87786 10.3297 10.0884 10.9179 10.3016 11.5051C10.343 11.6188 10.3163 11.6607 10.1911 11.6591C9.82443 11.6539 9.45829 11.6544 9.09163 11.6591C8.97273 11.6607 8.93239 11.6282 8.97587 11.5088C9.18906 10.9205 9.40015 10.3318 9.63953 9.66602Z" fill="current"/>
</svg>
